<svg width="39" height="40" viewBox="0 0 39 40" fill="none" xmlns="http://www.w3.org/2000/svg">
<path fill-rule="evenodd" clip-rule="evenodd" d="M2.4375 19.5725C2.4375 24.0978 4.23515 28.4377 7.43499 31.6375C10.6348 34.8374 14.9747 36.635 19.5 36.635C24.0253 36.635 28.3652 34.8374 31.565 31.6375C34.7648 28.4377 36.5625 24.0978 36.5625 19.5725C36.5625 15.0473 34.7648 10.7073 31.565 7.5075C28.3652 4.30766 24.0253 2.51001 19.5 2.51001C14.9747 2.51001 10.6348 4.30766 7.43499 7.5075C4.23515 10.7073 2.4375 15.0473 2.4375 19.5725ZM39 19.5725C39 24.7442 36.9455 29.7041 33.2886 33.3611C29.6316 37.0181 24.6717 39.0725 19.5 39.0725C14.3283 39.0725 9.36838 37.0181 5.71142 33.3611C2.05446 29.7041 0 24.7442 0 19.5725C0 14.4008 2.05446 9.44089 5.71142 5.78393C9.36838 2.12697 14.3283 0.0725098 19.5 0.0725098C24.6717 0.0725098 29.6316 2.12697 33.2886 5.78393C36.9455 9.44089 39 14.4008 39 19.5725ZM10.9688 18.3538C10.6455 18.3538 10.3355 18.4822 10.107 18.7107C9.8784 18.9393 9.75 19.2493 9.75 19.5725C9.75 19.8957 9.8784 20.2057 10.107 20.4343C10.3355 20.6629 10.6455 20.7913 10.9688 20.7913H25.0892L19.8559 26.0221C19.7426 26.1354 19.6527 26.27 19.5913 26.418C19.53 26.5661 19.4985 26.7248 19.4985 26.885C19.4985 27.0453 19.53 27.2039 19.5913 27.352C19.6527 27.5 19.7426 27.6346 19.8559 27.7479C19.9692 27.8612 20.1037 27.9511 20.2518 28.0124C20.3998 28.0737 20.5585 28.1053 20.7188 28.1053C20.879 28.1053 21.0377 28.0737 21.1857 28.0124C21.3338 27.9511 21.4683 27.8612 21.5816 27.7479L28.8941 20.4354C29.0076 20.3222 29.0977 20.1877 29.1591 20.0396C29.2206 19.8916 29.2522 19.7328 29.2522 19.5725C29.2522 19.4122 29.2206 19.2535 29.1591 19.1054C29.0977 18.9573 29.0076 18.8228 28.8941 18.7096L21.5816 11.3971C21.4683 11.2838 21.3338 11.1939 21.1857 11.1326C21.0377 11.0713 20.879 11.0397 20.7188 11.0397C20.5585 11.0397 20.3998 11.0713 20.2518 11.1326C20.1037 11.1939 19.9692 11.2838 19.8559 11.3971C19.7426 11.5104 19.6527 11.645 19.5913 11.793C19.53 11.9411 19.4985 12.0998 19.4985 12.26C19.4985 12.4203 19.53 12.5789 19.5913 12.727C19.6527 12.875 19.7426 13.0096 19.8559 13.1229L25.0892 18.3538H10.9688Z" fill="#3D56B2"/>
</svg>
