<svg width="542" height="404" viewBox="0 0 542 404" fill="none" xmlns="http://www.w3.org/2000/svg">
<path d="M542 354.974H0V355.245H542V354.974Z" fill="#EBEBEB"/>
<path d="M487.692 372.416H451.79V372.687H487.692V372.416Z" fill="#EBEBEB"/>
<path d="M359.043 375.364H349.623V375.635H359.043V375.364Z" fill="#EBEBEB"/>
<path d="M450.706 362.356H429.904V362.627H450.706V362.356Z" fill="#EBEBEB"/>
<path d="M103.685 364.177H56.8667V364.448H103.685V364.177Z" fill="#EBEBEB"/>
<path d="M120.205 364.177H113.343V364.448H120.205V364.177Z" fill="#EBEBEB"/>
<path d="M244.063 368.752H142.513V369.023H244.063V368.752Z" fill="#EBEBEB"/>
<path d="M256.908 306.628H47.5985C45.9588 306.625 44.3872 305.971 43.2287 304.811C42.0703 303.651 41.4197 302.078 41.4197 300.438V6.20795C41.434 4.57764 42.0909 3.0188 43.2478 1.87002C44.4047 0.721238 45.9681 0.0753026 47.5985 0.0725098H256.908C258.55 0.0725098 260.124 0.724631 261.285 1.88541C262.446 3.0462 263.098 4.62055 263.098 6.26215V300.438C263.098 302.08 262.446 303.654 261.285 304.815C260.124 305.976 258.55 306.628 256.908 306.628ZM47.5985 0.289311C46.0306 0.292182 44.528 0.917016 43.4204 2.02667C42.3128 3.13631 41.6907 4.64011 41.6907 6.20795V300.438C41.6907 302.006 42.3128 303.51 43.4204 304.619C44.528 305.729 46.0306 306.354 47.5985 306.357H256.908C258.477 306.354 259.981 305.729 261.09 304.62C262.199 303.511 262.824 302.007 262.827 300.438V6.20795C262.824 4.63911 262.199 3.13534 261.09 2.026C259.981 0.916664 258.477 0.292176 256.908 0.289311H47.5985Z" fill="#EBEBEB"/>
<path d="M491.388 306.628H282.068C280.427 306.625 278.854 305.972 277.694 304.812C276.534 303.651 275.881 302.079 275.878 300.438V6.20795C275.895 4.57665 276.554 3.01782 277.713 1.86934C278.872 0.72086 280.436 0.0752721 282.068 0.0725098H491.388C493.016 0.0781514 494.577 0.725348 495.732 1.87382C496.886 3.0223 497.542 4.57951 497.556 6.20795V300.438C497.556 302.076 496.907 303.647 495.751 304.807C494.595 305.967 493.026 306.622 491.388 306.628ZM282.068 0.289311C280.499 0.292176 278.995 0.916664 277.886 2.026C276.776 3.13534 276.152 4.63911 276.149 6.20795V300.438C276.152 302.007 276.776 303.511 277.886 304.62C278.995 305.729 280.499 306.354 282.068 306.357H491.388C492.957 306.354 494.461 305.729 495.57 304.62C496.679 303.511 497.304 302.007 497.307 300.438V6.20795C497.304 4.63911 496.679 3.13534 495.57 2.026C494.461 0.916664 492.957 0.292176 491.388 0.289311H282.068Z" fill="#EBEBEB"/>
<path d="M194.275 177.003L469.741 177.003V29.0153L194.275 29.0153V177.003Z" fill="#E6E6E6"/>
<path d="M187.315 177.003L466.489 177.003V29.0153L187.315 29.0153V177.003Z" fill="#F0F0F0"/>
<path d="M194.275 182.011L469.741 182.011V177.003L194.275 177.003V182.011Z" fill="#E6E6E6"/>
<path d="M175.717 182.011L454.89 182.011V177.003L175.717 177.003V182.011Z" fill="#F0F0F0"/>
<path d="M456.743 167.247V38.7496L197.05 38.7496V167.247L456.743 167.247Z" fill="#FAFAFA"/>
<path d="M426.706 167.258L369.525 38.7496H311.021L368.191 167.258H426.706Z" fill="white"/>
<path d="M452.234 145.784C452.327 145.784 452.418 145.766 452.504 145.73C452.589 145.695 452.667 145.643 452.732 145.577C452.798 145.512 452.85 145.434 452.885 145.349C452.92 145.263 452.939 145.172 452.939 145.079V45.091C452.917 44.9206 452.835 44.7638 452.706 44.6501C452.577 44.5364 452.411 44.4737 452.239 44.4737C452.068 44.4737 451.902 44.5364 451.773 44.6501C451.644 44.7638 451.562 44.9206 451.54 45.091V145.079C451.54 145.264 451.613 145.442 451.743 145.574C451.873 145.705 452.049 145.781 452.234 145.784Z" fill="#F0F0F0"/>
<path d="M346.197 167.258L289.016 38.7496H268.778L325.948 167.258H346.197Z" fill="white"/>
<path d="M198.296 167.258V38.7605H197.06V167.258H198.296Z" fill="#E6E6E6"/>
<g opacity="0.5">
<path opacity="0.5" d="M185.006 52.137H460.472L461.372 42.5328H185.906L185.006 52.137Z" fill="#E6E6E6"/>
<path opacity="0.5" d="M185.006 67.9743H460.472L461.372 58.3809H185.906L185.006 67.9743Z" fill="#E6E6E6"/>
<path opacity="0.5" d="M185.006 83.8223H460.472L461.372 74.229H185.906L185.006 83.8223Z" fill="#E6E6E6"/>
<path opacity="0.5" d="M185.006 99.6596H460.472L461.372 90.0662H185.906L185.006 99.6596Z" fill="#E6E6E6"/>
<path opacity="0.5" d="M185.006 115.508H460.472L461.372 105.914H185.906L185.006 115.508Z" fill="#E6E6E6"/>
<path opacity="0.5" d="M185.006 131.345H460.472L461.372 121.752H185.906L185.006 131.345Z" fill="#E6E6E6"/>
</g>
<path d="M431.584 348.698H465.069V215.799H431.584V348.698Z" fill="#F0F0F0"/>
<path d="M87.7605 354.974L458.629 354.974V348.698L87.7605 348.698V354.974Z" fill="#F0F0F0"/>
<path d="M431.573 215.799H81.3325V348.698H431.573V215.799Z" fill="#F5F5F5"/>
<path d="M418.424 299.679H94.503C94.1839 299.679 93.8779 299.552 93.6522 299.327C93.4266 299.101 93.2998 298.795 93.2998 298.476V266.021C93.2998 265.863 93.3309 265.707 93.3914 265.561C93.4519 265.415 93.5405 265.282 93.6522 265.17C93.764 265.059 93.8966 264.97 94.0426 264.909C94.1886 264.849 94.345 264.818 94.503 264.818H137.516C137.741 264.817 137.962 264.88 138.154 264.999C138.345 265.118 138.499 265.288 138.599 265.49C138.698 265.692 138.739 265.918 138.716 266.143C138.693 266.367 138.608 266.58 138.47 266.758C138.333 266.927 138.257 267.137 138.253 267.354C138.27 267.63 138.391 267.89 138.593 268.079C138.794 268.269 139.061 268.374 139.337 268.373H373.481C373.758 268.374 374.024 268.269 374.226 268.079C374.427 267.89 374.549 267.63 374.565 267.354C374.561 267.137 374.485 266.927 374.348 266.758C374.21 266.58 374.125 266.367 374.102 266.143C374.08 265.918 374.12 265.692 374.22 265.49C374.319 265.288 374.473 265.118 374.665 264.999C374.856 264.88 375.077 264.817 375.302 264.818H418.424C418.582 264.818 418.738 264.849 418.884 264.909C419.03 264.97 419.163 265.059 419.275 265.17C419.386 265.282 419.475 265.415 419.536 265.561C419.596 265.707 419.627 265.863 419.627 266.021V298.476C419.627 298.795 419.5 299.101 419.275 299.327C419.049 299.552 418.743 299.679 418.424 299.679ZM95.7063 297.273H417.199V267.224H377.091C377.096 267.268 377.096 267.311 377.091 267.354C377.077 268.275 376.698 269.153 376.037 269.795C375.377 270.437 374.489 270.791 373.568 270.78H139.424C138.503 270.791 137.615 270.437 136.955 269.795C136.294 269.153 135.915 268.275 135.901 267.354V267.224H95.793L95.7063 297.273Z" fill="white"/>
<path d="M418.424 338.053H94.503C94.1839 338.053 93.8779 337.926 93.6522 337.7C93.4266 337.475 93.2998 337.169 93.2998 336.85V304.395C93.2998 304.076 93.4266 303.77 93.6522 303.544C93.8779 303.318 94.1839 303.191 94.503 303.191H137.527C137.754 303.195 137.976 303.262 138.167 303.384C138.359 303.507 138.512 303.68 138.611 303.885C138.707 304.093 138.741 304.323 138.71 304.55C138.68 304.777 138.585 304.99 138.438 305.164C138.308 305.323 138.239 305.523 138.242 305.728C138.256 306.006 138.377 306.268 138.578 306.46C138.78 306.651 139.048 306.758 139.326 306.758H373.47C373.749 306.758 374.017 306.651 374.218 306.46C374.42 306.268 374.541 306.006 374.554 305.728C374.554 305.522 374.481 305.322 374.348 305.164C374.204 304.988 374.112 304.774 374.083 304.548C374.055 304.322 374.09 304.092 374.186 303.885C374.281 303.678 374.434 303.503 374.626 303.38C374.818 303.257 375.042 303.191 375.27 303.191H418.424C418.743 303.191 419.049 303.318 419.275 303.544C419.5 303.77 419.627 304.076 419.627 304.395V336.85C419.629 337.008 419.598 337.165 419.539 337.312C419.479 337.458 419.39 337.592 419.278 337.704C419.166 337.816 419.033 337.904 418.886 337.964C418.739 338.024 418.582 338.054 418.424 338.053ZM95.7063 335.646H417.199V305.598H377.091C377.096 305.641 377.096 305.685 377.091 305.728C377.085 306.185 376.99 306.636 376.81 307.056C376.629 307.476 376.368 307.857 376.041 308.176C375.714 308.495 375.327 308.747 374.903 308.916C374.479 309.086 374.025 309.17 373.568 309.164H139.424C138.967 309.17 138.513 309.086 138.089 308.916C137.665 308.747 137.278 308.495 136.951 308.176C136.624 307.857 136.363 307.476 136.182 307.056C136.002 306.636 135.907 306.185 135.901 305.728V305.598H95.793L95.7063 335.646Z" fill="white"/>
<path d="M418.424 261.317H94.503C94.1839 261.317 93.8779 261.19 93.6522 260.964C93.4266 260.738 93.2998 260.432 93.2998 260.113V227.647C93.2998 227.328 93.4266 227.022 93.6522 226.797C93.8779 226.571 94.1839 226.444 94.503 226.444H137.516C137.743 226.442 137.967 226.505 138.159 226.626C138.351 226.747 138.504 226.921 138.6 227.127C138.696 227.331 138.733 227.559 138.706 227.783C138.68 228.007 138.59 228.22 138.448 228.395C138.319 228.559 138.25 228.762 138.253 228.97C138.267 229.248 138.388 229.51 138.589 229.702C138.791 229.893 139.059 230 139.337 230H373.481C373.76 230 374.027 229.893 374.229 229.702C374.431 229.51 374.551 229.248 374.565 228.97C374.565 228.76 374.492 228.558 374.359 228.395C374.214 228.219 374.122 228.006 374.095 227.779C374.068 227.553 374.106 227.323 374.205 227.118C374.305 226.912 374.461 226.739 374.655 226.62C374.85 226.501 375.074 226.44 375.302 226.444H418.424C418.582 226.443 418.739 226.473 418.886 226.533C419.033 226.593 419.166 226.681 419.278 226.793C419.39 226.905 419.479 227.039 419.539 227.185C419.598 227.332 419.629 227.489 419.627 227.647V260.102C419.629 260.261 419.599 260.419 419.539 260.566C419.479 260.713 419.39 260.847 419.279 260.96C419.167 261.073 419.034 261.163 418.887 261.224C418.74 261.285 418.583 261.317 418.424 261.317ZM95.7063 258.899H417.199V228.851H377.091C377.097 228.89 377.097 228.93 377.091 228.97C377.077 229.892 376.698 230.771 376.038 231.415C375.378 232.058 374.49 232.415 373.568 232.406H139.424C138.502 232.415 137.614 232.058 136.954 231.415C136.294 230.771 135.915 229.892 135.901 228.97V228.851H95.793L95.7063 258.899Z" fill="white"/>
<path d="M76.8665 215.799L431.573 215.799V204.883L76.8665 204.883V215.799Z" fill="#F0F0F0"/>
<path d="M161.429 186.098C161.429 186.098 160.497 204.883 124.92 204.883C89.3434 204.883 88.4111 186.098 88.4111 186.098H161.429Z" fill="#F0F0F0"/>
<path d="M161.429 174.065C161.429 174.065 160.497 192.851 124.92 192.851C89.3434 192.851 88.4111 174.065 88.4111 174.065H161.429Z" fill="#F0F0F0"/>
<path d="M469.741 204.883H431.573V215.799H469.741V204.883Z" fill="#E6E6E6"/>
<path d="M69.8204 153.057H137.289L137.289 29.0153L69.8204 29.0153L69.8204 153.057Z" fill="#E6E6E6"/>
<path d="M62.124 153.057H135.446L135.446 29.0153L62.124 29.0153L62.124 153.057Z" fill="#F0F0F0"/>
<path d="M129.31 146.911V35.1507L68.2703 35.1507V146.911H129.31Z" fill="white"/>
<path d="M113.647 62.5218H83.9341C83.6089 62.5218 83.3379 63.0096 83.3379 63.6058V118.445C83.3379 119.052 83.6089 119.529 83.9341 119.529H113.647C113.972 119.529 114.232 119.042 114.232 118.445V63.6166C114.232 63.0096 113.972 62.5218 113.647 62.5218ZM84.552 117.361V64.7006L113.083 117.361H84.552Z" fill="#F0F0F0"/>
<path d="M271 403.928C387.077 403.928 481.177 398.434 481.177 391.657C481.177 384.88 387.077 379.386 271 379.386C154.923 379.386 60.8232 384.88 60.8232 391.657C60.8232 398.434 154.923 403.928 271 403.928Z" fill="#F5F5F5"/>
<path d="M167.521 389.033C170.674 389.033 173.699 387.785 175.934 385.56C178.168 383.336 179.431 380.317 179.445 377.164V275.409C179.431 272.256 178.168 269.236 175.934 267.012C173.699 264.788 170.674 263.539 167.521 263.539H102.98V389.033H167.521Z" fill="#407BFF"/>
<path opacity="0.2" d="M167.521 389.033C170.674 389.033 173.699 387.785 175.934 385.56C178.168 383.336 179.431 380.317 179.445 377.164V275.409C179.431 272.256 178.168 269.236 175.934 267.012C173.699 264.788 170.674 263.539 167.521 263.539H102.98V389.033H167.521Z" fill="black"/>
<path d="M102.98 263.56C99.8306 263.56 96.8091 264.806 94.5751 267.026C92.3411 269.246 91.0759 272.259 91.0559 275.409V389.012H114.796V275.409C114.776 272.278 113.526 269.281 111.315 267.064C109.104 264.847 106.11 263.589 102.98 263.56Z" fill="#407BFF"/>
<path d="M431.486 308.319L435.67 256.439C435.884 254.261 435.636 252.064 434.942 249.989C434.248 247.914 433.124 246.01 431.644 244.399C430.163 242.789 428.36 241.509 426.35 240.643C424.341 239.778 422.172 239.346 419.985 239.376H209.212C204.583 239.469 200.15 241.257 196.753 244.403C193.356 247.548 191.232 251.831 190.784 256.439L186.589 308.319C186.446 309.785 186.613 311.264 187.078 312.661C187.544 314.059 188.298 315.343 189.291 316.43C190.284 317.517 191.495 318.384 192.845 318.973C194.194 319.563 195.653 319.863 197.125 319.853H419.02C422.15 319.79 425.148 318.582 427.446 316.456C429.744 314.33 431.181 311.434 431.486 308.319Z" fill="#407BFF"/>
<path opacity="0.3" d="M431.486 308.319L435.67 256.439C435.884 254.261 435.636 252.064 434.942 249.989C434.248 247.914 433.124 246.01 431.644 244.399C430.163 242.789 428.36 241.509 426.35 240.643C424.341 239.778 422.172 239.346 419.985 239.376H209.212C204.583 239.469 200.15 241.257 196.753 244.403C193.356 247.548 191.232 251.831 190.784 256.439L186.589 308.319C186.446 309.785 186.613 311.264 187.078 312.661C187.544 314.059 188.298 315.343 189.291 316.43C190.284 317.517 191.495 318.384 192.845 318.973C194.194 319.563 195.653 319.863 197.125 319.853H419.02C422.15 319.79 425.148 318.582 427.446 316.456C429.744 314.33 431.181 311.434 431.486 308.319Z" fill="black"/>
<path d="M410.391 308.319L414.576 256.439C414.789 254.263 414.542 252.067 413.849 249.994C413.157 247.921 412.035 246.017 410.556 244.407C409.078 242.797 407.277 241.517 405.271 240.65C403.264 239.783 401.097 239.349 398.912 239.376H188.074C183.446 239.471 179.014 241.261 175.617 244.405C172.221 247.55 170.096 251.832 169.646 256.439L165.462 308.319C165.318 309.788 165.486 311.271 165.954 312.672C166.423 314.072 167.18 315.358 168.178 316.446C169.176 317.534 170.392 318.4 171.747 318.987C173.102 319.574 174.565 319.869 176.041 319.853H397.936C401.065 319.79 404.062 318.581 406.358 316.455C408.654 314.329 410.089 311.433 410.391 308.319Z" fill="#407BFF"/>
<path opacity="0.1" d="M410.391 308.319L414.576 256.439C414.789 254.263 414.542 252.067 413.849 249.994C413.157 247.921 412.035 246.017 410.556 244.407C409.078 242.797 407.277 241.517 405.271 240.65C403.264 239.783 401.097 239.349 398.912 239.376H188.074C183.446 239.471 179.014 241.261 175.617 244.405C172.221 247.55 170.096 251.832 169.646 256.439L165.462 308.319C165.318 309.788 165.486 311.271 165.954 312.672C166.423 314.072 167.18 315.358 168.178 316.446C169.176 317.534 170.392 318.4 171.747 318.987C173.102 319.574 174.565 319.869 176.041 319.853H397.936C401.065 319.79 404.062 318.581 406.358 316.455C408.654 314.329 410.089 311.433 410.391 308.319Z" fill="black"/>
<path d="M144.378 271.073C144.378 271.073 141.278 268.742 142.394 267.495C143.511 266.249 148.605 268.579 148.605 268.579C148.605 268.579 177.266 264.97 194.133 265.62C194.253 263.344 196.497 262.466 198.307 262.877C200.117 263.289 198.307 266.986 198.307 266.986C198.307 266.986 210.133 297.121 209.754 312.34C211.64 313.966 213.526 315.115 211.597 315.896C210.98 316.096 210.323 316.14 209.685 316.022C209.047 315.905 208.449 315.631 207.944 315.224C207.944 315.224 169.884 320.796 154.394 317.988C153.31 320.048 151.142 319.647 149.841 319.007C148.54 318.367 150.698 315.386 150.698 315.386C150.698 315.386 141.213 289.078 144.378 271.073Z" fill="#407BFF"/>
<path opacity="0.2" d="M144.378 271.073C144.378 271.073 141.278 268.742 142.394 267.495C143.511 266.249 148.605 268.579 148.605 268.579C148.605 268.579 177.266 264.97 194.133 265.62C194.253 263.344 196.497 262.466 198.307 262.877C200.117 263.289 198.307 266.986 198.307 266.986C198.307 266.986 210.133 297.121 209.754 312.34C211.64 313.966 213.526 315.115 211.597 315.896C210.98 316.096 210.323 316.14 209.685 316.022C209.047 315.905 208.449 315.631 207.944 315.224C207.944 315.224 169.884 320.796 154.394 317.988C153.31 320.048 151.142 319.647 149.841 319.007C148.54 318.367 150.698 315.386 150.698 315.386C150.698 315.386 141.213 289.078 144.378 271.073Z" fill="white"/>
<path opacity="0.2" d="M402.283 271.073C402.283 271.073 405.383 268.742 404.267 267.495C403.15 266.249 398.066 268.579 398.066 268.579C398.066 268.579 369.395 264.97 352.538 265.62C352.43 263.344 350.175 262.466 348.365 262.877C346.555 263.289 348.365 266.986 348.365 266.986C348.365 266.986 336.538 297.121 336.918 312.34C335.032 313.966 333.156 315.115 335.086 315.896C335.703 316.095 336.36 316.138 336.997 316.021C337.635 315.904 338.233 315.63 338.739 315.224C338.739 315.224 376.798 320.796 392.278 317.988C393.362 320.048 395.53 319.647 396.831 319.007C398.131 318.367 395.974 315.386 395.974 315.386C395.974 315.386 405.416 289.078 402.283 271.073Z" fill="white"/>
<path d="M439.074 389.033C442.218 389.019 445.229 387.764 447.452 385.541C449.675 383.318 450.93 380.307 450.944 377.164V275.409C450.93 272.265 449.675 269.254 447.452 267.031C445.229 264.808 442.218 263.553 439.074 263.539H382.934V389.033H439.074Z" fill="#407BFF"/>
<path opacity="0.2" d="M439.074 389.033C442.218 389.019 445.229 387.764 447.452 385.541C449.675 383.318 450.93 380.307 450.944 377.164V275.409C450.93 272.265 449.675 269.254 447.452 267.031C445.229 264.808 442.218 263.553 439.074 263.539H382.934V389.033H439.074Z" fill="black"/>
<path d="M385.698 331.43V321.175C385.698 317.451 382.679 314.433 378.956 314.433H139.121C135.397 314.433 132.378 317.451 132.378 321.175V331.43C132.378 335.153 135.397 338.172 139.121 338.172H378.956C382.679 338.172 385.698 335.153 385.698 331.43Z" fill="#407BFF"/>
<path d="M385.687 385.445V341.771C385.687 339.783 384.076 338.172 382.088 338.172H144.334C142.347 338.172 140.736 339.783 140.736 341.771V385.445C140.736 387.433 142.347 389.044 144.334 389.044H382.088C384.076 389.044 385.687 387.433 385.687 385.445Z" fill="#407BFF"/>
<path opacity="0.1" d="M385.687 385.445V341.771C385.687 339.783 384.076 338.172 382.088 338.172H144.334C142.347 338.172 140.736 339.783 140.736 341.771V385.445C140.736 387.433 142.347 389.044 144.334 389.044H382.088C384.076 389.044 385.687 387.433 385.687 385.445Z" fill="black"/>
<path opacity="0.1" d="M382.099 338.172H144.345C143.391 338.172 142.476 338.551 141.801 339.226C141.126 339.901 140.747 340.817 140.747 341.771H385.731C385.731 341.296 385.636 340.825 385.454 340.386C385.271 339.947 385.003 339.549 384.665 339.215C384.327 338.88 383.927 338.616 383.486 338.437C383.046 338.258 382.575 338.168 382.099 338.172Z" fill="black"/>
<path d="M382.934 263.56C379.794 263.575 376.786 264.827 374.564 267.045C372.342 269.263 371.084 272.269 371.064 275.409V389.012H394.804V275.409C394.784 272.269 393.526 269.263 391.304 267.045C389.081 264.827 386.074 263.575 382.934 263.56Z" fill="#407BFF"/>
<path d="M425.6 391.234H111.457C110.882 391.234 110.33 391.006 109.924 390.599C109.517 390.192 109.289 389.641 109.289 389.066H427.79C427.79 389.352 427.733 389.636 427.623 389.901C427.512 390.165 427.351 390.405 427.147 390.607C426.943 390.808 426.702 390.968 426.436 391.075C426.171 391.183 425.887 391.237 425.6 391.234Z" fill="#263238"/>
<path d="M288.767 236.937C288.767 238.282 297.764 239.376 308.853 239.376C319.942 239.376 328.95 238.292 328.95 236.937H288.767Z" fill="#263238"/>
<path d="M297.146 226.444C297.098 228.012 297.366 229.574 297.933 231.037C298.5 232.5 299.355 233.834 300.448 234.96C301.54 236.086 302.847 236.981 304.292 237.592C305.737 238.204 307.29 238.519 308.859 238.519C310.427 238.519 311.98 238.204 313.425 237.592C314.87 236.981 316.177 236.086 317.27 234.96C318.362 233.834 319.217 232.5 319.784 231.037C320.351 229.574 320.619 228.012 320.571 226.444H297.146Z" fill="#263238"/>
<path d="M296.669 235.203C295.933 235.205 295.212 234.989 294.599 234.581C293.986 234.173 293.508 233.593 293.225 232.913C292.943 232.233 292.868 231.484 293.011 230.762C293.154 230.04 293.509 229.376 294.029 228.856C294.55 228.335 295.213 227.981 295.936 227.838C296.658 227.695 297.406 227.769 298.086 228.052C298.766 228.335 299.347 228.813 299.754 229.426C300.162 230.039 300.379 230.759 300.376 231.496C300.376 232.479 299.986 233.422 299.291 234.117C298.595 234.812 297.652 235.203 296.669 235.203ZM296.669 228.948C296.165 228.946 295.671 229.094 295.251 229.372C294.831 229.651 294.502 230.048 294.308 230.513C294.113 230.979 294.061 231.491 294.159 231.986C294.256 232.481 294.497 232.936 294.853 233.293C295.209 233.65 295.663 233.894 296.157 233.993C296.652 234.093 297.165 234.043 297.631 233.85C298.097 233.658 298.495 233.331 298.776 232.912C299.056 232.493 299.206 232 299.206 231.496C299.206 230.822 298.939 230.176 298.463 229.698C297.988 229.221 297.343 228.951 296.669 228.948Z" fill="#263238"/>
<path d="M305.623 224.33C305.378 223.399 305.474 222.411 305.894 221.545C306.278 220.915 306.594 220.246 306.837 219.55C306.962 219.034 306.962 218.495 306.837 217.978C306.665 217.466 306.38 216.999 306.002 216.612C305.706 216.253 305.441 215.869 305.211 215.463C304.932 214.947 304.745 214.385 304.658 213.805C304.571 213.234 304.571 212.653 304.658 212.081C304.724 211.515 304.896 210.967 305.168 210.466C305.612 209.756 306.186 209.134 306.859 208.634C307.415 208.153 307.812 207.514 307.997 206.802C308.242 207.73 308.146 208.715 307.726 209.577C307.343 210.211 307.027 210.883 306.783 211.583C306.658 212.099 306.658 212.638 306.783 213.154C306.95 213.669 307.236 214.137 307.617 214.52C307.902 214.863 308.163 215.225 308.398 215.604C308.678 216.124 308.865 216.689 308.951 217.274C309.141 218.412 308.962 219.582 308.441 220.612C308.003 221.321 307.433 221.94 306.761 222.433C306.188 222.927 305.789 223.592 305.623 224.33Z" fill="#E0E0E0"/>
<path d="M309.764 213.295C309.507 212.369 309.604 211.38 310.035 210.52C310.417 209.886 310.733 209.214 310.978 208.515C311.102 207.998 311.102 207.46 310.978 206.943C310.801 206.431 310.512 205.964 310.132 205.577C309.842 205.22 309.581 204.839 309.352 204.439C309.075 203.918 308.888 203.353 308.799 202.77C308.718 202.198 308.718 201.618 308.799 201.046C308.873 200.481 309.05 199.933 309.319 199.431C309.761 198.721 310.331 198.1 310.999 197.599C311.565 197.126 311.964 196.484 312.138 195.767C312.393 196.697 312.296 197.689 311.867 198.553C311.491 199.187 311.176 199.855 310.924 200.548C310.804 201.065 310.804 201.602 310.924 202.119C311.1 202.629 311.385 203.095 311.758 203.485C312.047 203.828 312.311 204.19 312.55 204.569C312.83 205.089 313.017 205.654 313.102 206.239C313.293 207.377 313.114 208.547 312.593 209.577C312.155 210.286 311.584 210.905 310.913 211.398C310.336 211.89 309.933 212.556 309.764 213.295Z" fill="#E0E0E0"/>
<path d="M356.972 293.75C350.869 302.606 346.663 302.964 344.81 302.628C340.582 300.948 336.322 299.376 332.051 297.858C326.631 295.929 321.211 294.129 315.726 292.438C310.241 290.747 304.723 289.067 299.108 287.604C296.279 286.877 293.45 286.162 290.545 285.511C289.135 285.154 287.585 284.904 286.1 284.612C285.374 284.46 284.572 284.352 283.759 284.232L281.331 283.896H281.136H280.182C274.697 284.026 269.212 284.135 263.737 284.352L255.521 284.623L247.304 284.991C241.884 285.208 236.366 285.533 230.892 285.847C225.418 286.162 219.955 286.552 214.491 287.04L215.575 305.056C221.06 304.882 226.545 304.579 232.03 304.254C237.515 303.929 242.99 303.56 248.464 303.17L256.68 302.53L264.886 301.815C270.209 301.37 275.52 300.839 280.843 300.319L281.927 300.395C282.534 300.395 283.141 300.471 283.813 300.557C285.136 300.731 286.415 300.828 287.791 301.034C290.49 301.381 293.211 301.815 295.986 302.259C301.493 303.191 307.065 304.113 312.626 305.121L329.384 308.08C334.143 308.893 338.902 309.706 343.682 310.454C345.026 311.614 346.468 313.121 346.934 313.533C348.344 314.671 350.1 315.137 350.858 313.381C351.617 311.625 351.867 309.63 353.189 306.389C353.991 304.405 357.189 298.877 358.306 296.124C359.422 293.37 357.72 292.753 356.972 293.75Z" fill="#FFC3BD"/>
<path opacity="0.2" d="M356.972 293.75C350.869 302.606 346.663 302.964 344.81 302.628C340.582 300.948 336.322 299.376 332.051 297.858C326.631 295.929 321.211 294.129 315.726 292.438C310.241 290.747 304.723 289.067 299.108 287.604C296.279 286.877 293.45 286.162 290.545 285.511C289.135 285.154 287.585 284.904 286.1 284.612C285.374 284.46 284.572 284.352 283.759 284.232L281.331 283.896H281.136H280.182C274.697 284.026 269.212 284.135 263.737 284.352L255.521 284.623L247.304 284.991C241.884 285.208 236.366 285.533 230.892 285.847C225.418 286.162 219.955 286.552 214.491 287.04L215.575 305.056C221.06 304.882 226.545 304.579 232.03 304.254C237.515 303.929 242.99 303.56 248.464 303.17L256.68 302.53L264.886 301.815C270.209 301.37 275.52 300.839 280.843 300.319L281.927 300.395C282.534 300.395 283.141 300.471 283.813 300.557C285.136 300.731 286.415 300.839 287.791 301.034C290.49 301.381 293.211 301.815 295.986 302.259C301.493 303.191 307.065 304.113 312.626 305.121L329.384 308.08C334.143 308.893 338.902 309.706 343.682 310.454C345.026 311.614 346.468 313.121 346.934 313.533C348.344 314.671 350.1 315.137 350.858 313.381C351.617 311.625 351.867 309.63 353.189 306.389C353.991 304.405 357.189 298.877 358.306 296.124C359.422 293.37 357.72 292.753 356.972 293.75Z" fill="black"/>
<path d="M217.429 242.271C217.646 243.355 217.971 244.634 218.264 245.826C218.556 247.019 218.903 248.243 219.261 249.436C219.987 251.832 220.8 254.184 221.7 256.449C222.573 258.663 223.632 260.799 224.865 262.834C225.938 264.673 227.295 266.33 228.887 267.745C230.125 268.865 231.708 269.53 233.375 269.631C234.225 269.634 235.072 269.517 235.889 269.284C236.718 269.057 237.503 268.69 238.209 268.2C239.809 267.026 241.073 265.452 241.873 263.636C242.354 262.585 242.753 261.498 243.065 260.384C243.409 259.267 243.688 258.13 243.9 256.981V256.72C244.001 256.181 244.29 255.695 244.716 255.349C245.141 255.003 245.676 254.819 246.224 254.829C246.773 254.839 247.3 255.044 247.712 255.406C248.124 255.768 248.394 256.264 248.475 256.807C248.69 258.282 248.763 259.774 248.691 261.262C248.63 262.768 248.419 264.264 248.063 265.728C247.337 268.995 245.645 271.968 243.206 274.259C241.885 275.478 240.348 276.441 238.675 277.1C237.011 277.767 235.242 278.134 233.45 278.184C231.586 278.238 229.728 277.936 227.976 277.295C226.315 276.683 224.758 275.82 223.358 274.736C220.879 272.776 218.759 270.399 217.093 267.712C215.545 265.26 214.2 262.686 213.071 260.016C211.961 257.439 211.013 254.797 210.231 252.103C209.83 250.769 209.461 249.436 209.147 248.092C208.833 246.748 208.529 245.425 208.247 243.918C208.012 242.701 208.269 241.439 208.963 240.412C209.658 239.384 210.732 238.674 211.949 238.439C213.167 238.203 214.428 238.461 215.456 239.155C216.483 239.849 217.193 240.923 217.429 242.141V242.271Z" fill="#FFC3BD"/>
<path d="M211.554 292.969C221.83 294.053 232.312 295.137 242.632 296.124C247.802 296.579 252.962 297.023 258.079 297.327C260.637 297.464 263.166 297.587 265.667 297.696L269.407 297.75H270.892C271.742 297.779 272.587 297.888 273.417 298.075C275.385 298.512 277.212 299.436 278.729 300.763C280.069 301.952 281.14 303.411 281.873 305.045C282.408 306.231 282.791 307.481 283.011 308.763C283.319 310.662 283.406 312.59 283.271 314.508C283.029 317.588 282.525 320.642 281.764 323.636C280.339 329.049 278.553 334.362 276.42 339.538C275.394 342.06 274.31 344.56 273.168 347.039C272.026 349.518 270.863 351.957 269.678 354.356C267.239 359.191 264.745 363.917 261.916 368.578L255.499 365.652C258.577 355.614 261.678 345.5 264.258 335.527C265.541 330.667 266.568 325.742 267.336 320.774C267.695 318.585 267.855 316.368 267.813 314.151C267.808 313.418 267.706 312.689 267.51 311.983C267.434 311.798 267.369 311.733 267.423 311.928C267.603 312.347 267.877 312.718 268.225 313.012C268.73 313.477 269.34 313.812 270.003 313.988C270.184 314.039 270.369 314.076 270.556 314.096H270.024L265.819 314.357L261.678 314.519C260.29 314.573 258.924 314.519 257.548 314.519C252.073 314.519 246.643 314.4 241.288 314.075C230.448 313.457 219.857 312.438 209.115 310.747L211.554 292.969Z" fill="#FFC3BD"/>
<path d="M251.25 368.633C251.954 368.015 255.304 365.771 256.312 364.437C257.32 363.104 260.052 367.473 260.301 367.624C261.461 368.708 262.588 367.473 262.404 367.874C261.721 369.38 260.691 373.641 269.049 381.695C269.959 382.573 269.049 384.188 266.577 382.67C264.106 381.153 259.109 377.077 257.277 375.95C254.296 374.128 252.496 373.651 250.773 372.524C249.049 371.397 249.895 369.879 251.25 368.633Z" fill="#FFC3BD"/>
<path d="M170.513 236.45C169.362 236.623 168.313 237.212 167.565 238.104C166.816 238.996 166.419 240.131 166.448 241.295C166.86 259.495 167.532 286.52 182.394 301.468C187.38 306.476 190.112 308.622 194.621 309.891C202.06 298.936 208.303 287.216 213.245 274.932C210.871 273.739 209.299 269.566 209.299 265.609C209.299 256.937 211.835 247.246 213.472 241.88C213.636 241.345 213.684 240.782 213.615 240.226C213.545 239.671 213.359 239.137 213.068 238.659C212.777 238.181 212.389 237.77 211.928 237.453C211.467 237.135 210.944 236.919 210.394 236.818C207.944 236.374 204.681 235.853 201.06 235.463C195.101 234.947 189.113 234.861 183.142 235.203C178.912 235.375 174.695 235.791 170.513 236.45Z" fill="#407BFF"/>
<path opacity="0.5" d="M170.513 236.45C169.362 236.623 168.313 237.212 167.565 238.104C166.816 238.996 166.419 240.131 166.448 241.295C166.86 259.495 167.532 286.52 182.394 301.468C187.38 306.476 190.112 308.622 194.621 309.891C202.06 298.936 208.303 287.216 213.245 274.932C210.871 273.739 209.299 269.566 209.299 265.609C209.299 256.937 211.835 247.246 213.472 241.88C213.636 241.345 213.684 240.782 213.615 240.226C213.545 239.671 213.359 239.137 213.068 238.659C212.777 238.181 212.389 237.77 211.928 237.453C211.467 237.135 210.944 236.919 210.394 236.818C207.944 236.374 204.681 235.853 201.06 235.463C195.101 234.947 189.113 234.861 183.142 235.203C178.912 235.375 174.695 235.791 170.513 236.45Z" fill="black"/>
<path opacity="0.2" d="M166.568 246.141C166.828 255.224 167.402 265.826 169.69 275.842C172.714 264.406 172.942 244.287 172.942 244.287L166.568 246.141Z" fill="black"/>
<path d="M213.245 274.932C213.245 274.932 226.892 280.059 254.014 282.064L252.117 308.308C238.025 317.143 201.646 312.644 198.188 303.332L213.245 274.932Z" fill="#263238"/>
<path opacity="0.2" d="M227.64 288.72L253.309 291.885L253.667 286.921C247.889 288.07 227.64 288.72 227.64 288.72Z" fill="black"/>
<path d="M208.854 283.213C224.879 287.153 241.19 289.817 257.634 291.181L257.439 320.937C236.54 326.747 198.08 319.191 194.567 309.891L208.854 283.213Z" fill="#263238"/>
<path d="M173.44 243.875C171.684 250.075 169.993 256.449 168.53 262.758C167.803 265.923 167.175 269.089 166.589 272.232C166.035 275.3 165.673 278.399 165.505 281.511C165.505 282.249 165.505 282.975 165.505 283.679C165.505 284.045 165.549 284.409 165.635 284.763C165.7 284.894 165.549 284.763 165.408 284.688C165.267 284.612 165.408 284.763 165.765 284.785C166.951 284.77 168.124 284.55 169.234 284.135C170.65 283.65 172.033 283.074 173.375 282.411C176.244 281.017 179.03 279.461 181.722 277.75C184.464 276.048 187.207 274.216 189.852 272.384C190.33 272.044 190.918 271.898 191.499 271.974C192.08 272.051 192.611 272.344 192.985 272.796C193.358 273.248 193.547 273.824 193.513 274.41C193.478 274.995 193.224 275.545 192.8 275.951C187.926 280.781 182.543 285.07 176.746 288.742C175.189 289.683 173.574 290.526 171.912 291.267C169.962 292.158 167.862 292.676 165.722 292.796C164.184 292.861 162.657 292.513 161.299 291.788C159.779 290.938 158.588 289.602 157.917 287.994C157.423 286.792 157.13 285.518 157.05 284.221C156.985 283.268 156.952 282.335 156.942 281.414C156.985 277.899 157.253 274.391 157.744 270.91C158.188 267.495 158.828 264.157 159.511 260.84C160.877 254.195 162.524 247.734 164.519 241.219C164.877 240.041 165.686 239.052 166.77 238.467C167.854 237.882 169.124 237.749 170.306 238.096C171.487 238.443 172.484 239.243 173.079 240.321C173.674 241.399 173.82 242.669 173.483 243.853L173.44 243.875Z" fill="#FFC3BD"/>
<path d="M178.199 185.783C175.283 183.453 168.768 178.727 173.332 174.087C177.895 169.448 191.001 173.664 192.421 178.087C195.803 188.569 185.538 191.648 178.199 185.783Z" fill="#263238"/>
<path d="M178.372 177.979C177.039 174.618 173.852 167.551 179.565 164.971C185.277 162.391 193.993 171.54 193.212 176.309C191.348 187.605 181.722 186.455 178.372 177.979Z" fill="#263238"/>
<path d="M185.527 174.597C186.611 171.345 188.779 164.331 194.199 166.662C199.619 168.992 199.857 181.415 196.454 184.071C188.378 190.38 182.643 182.737 185.527 174.597Z" fill="#263238"/>
<path d="M190.036 193.653C186.892 194.737 182.448 194.206 182.22 188.558C181.993 182.911 187.5 178.987 193.451 179.29C202.318 179.735 197.971 190.954 190.036 193.653Z" fill="#407BFF"/>
<path d="M185.212 215.041C186.296 220.829 187.229 231.409 183.142 235.203C183.142 235.203 190.621 243.019 198.036 243.127C205.451 243.235 201.06 235.463 201.06 235.463C194.654 233.837 194.892 229.067 196.074 224.623L185.212 215.041Z" fill="#FFC3BD"/>
<path d="M184.204 207.659C179.142 202.607 175.695 193.025 185.603 185.502C195.51 177.979 211.76 188.244 213.505 196.829C215.966 209.003 196.985 220.406 184.204 207.659Z" fill="#263238"/>
<path opacity="0.2" d="M189.635 218.943L196.074 224.591C195.78 225.63 195.577 226.692 195.467 227.767C193.017 227.376 189.353 225.122 189.125 222.542C189.084 221.322 189.256 220.104 189.635 218.943Z" fill="black"/>
<path d="M186.112 200.385C184.313 209.87 183.348 213.837 186.849 219.821C192.107 228.829 204.139 228.97 208.735 220.222C212.865 212.341 215.12 198.173 206.925 192.136C205.125 190.796 203.014 189.939 200.79 189.646C198.566 189.352 196.304 189.632 194.219 190.459C192.134 191.285 190.294 192.631 188.876 194.368C187.457 196.105 186.505 198.177 186.112 200.385Z" fill="#FFC3BD"/>
<path d="M183.196 204.027C184.475 208.743 197.787 202.607 199.836 195.355C202.773 199.995 213.396 203.052 212.551 197.924C211.705 192.797 204.963 185.805 196.768 187.301C188.573 188.797 181.028 195.843 183.196 204.027Z" fill="#263238"/>
<path d="M182.112 207.962C182.243 209.823 183.104 211.557 184.508 212.786C186.383 214.39 188.356 212.959 188.714 210.618C189.028 208.537 188.432 205.198 186.134 204.461C185.624 204.311 185.085 204.293 184.566 204.406C184.047 204.52 183.565 204.762 183.165 205.111C182.764 205.46 182.458 205.904 182.274 206.402C182.09 206.9 182.034 207.437 182.112 207.962Z" fill="#FFC3BD"/>
<path d="M199.315 207.94C199.12 208.699 199.315 209.415 199.857 209.545C200.399 209.675 200.941 209.154 201.115 208.396C201.288 207.637 201.06 206.911 200.562 206.791C200.063 206.672 199.456 207.182 199.315 207.94Z" fill="#263238"/>
<path d="M207.9 210.119C207.705 210.878 207.955 211.593 208.453 211.724C208.952 211.854 209.537 211.333 209.7 210.574C209.863 209.816 209.7 209.1 209.147 208.97C208.594 208.84 208.128 209.36 207.9 210.119Z" fill="#263238"/>
<path d="M208.919 208.959L210.881 208.894C210.881 208.894 209.581 210.087 208.919 208.959Z" fill="#263238"/>
<path d="M204.714 210.206C205.312 212.118 206.165 213.941 207.25 215.626C206.843 215.9 206.381 216.082 205.896 216.161C205.412 216.239 204.916 216.212 204.443 216.081L204.714 210.206Z" fill="#ED847E"/>
<path d="M200.54 218.488C200.587 218.491 200.633 218.478 200.672 218.453C200.711 218.428 200.741 218.39 200.757 218.347C200.767 218.297 200.759 218.244 200.732 218.2C200.706 218.156 200.665 218.123 200.616 218.108C199.66 217.887 198.769 217.444 198.016 216.815C197.263 216.186 196.668 215.389 196.28 214.488C196.273 214.463 196.26 214.439 196.244 214.419C196.227 214.399 196.206 214.383 196.182 214.372C196.159 214.361 196.133 214.354 196.107 214.354C196.081 214.353 196.055 214.358 196.031 214.368C195.984 214.386 195.946 214.42 195.924 214.464C195.902 214.508 195.897 214.559 195.911 214.607C196.311 215.575 196.938 216.433 197.741 217.107C198.543 217.78 199.496 218.25 200.518 218.477L200.54 218.488Z" fill="#263238"/>
<path d="M197.678 203.995C197.769 204.01 197.861 203.99 197.938 203.94C198.422 203.599 198.98 203.378 199.566 203.295C200.153 203.212 200.75 203.27 201.31 203.463C201.356 203.483 201.406 203.493 201.456 203.493C201.506 203.493 201.556 203.484 201.602 203.465C201.648 203.445 201.69 203.417 201.726 203.382C201.761 203.346 201.789 203.304 201.808 203.257C201.843 203.169 201.843 203.072 201.809 202.983C201.775 202.895 201.709 202.823 201.624 202.781C200.948 202.536 200.222 202.457 199.509 202.552C198.796 202.646 198.116 202.91 197.527 203.323C197.484 203.35 197.448 203.386 197.419 203.427C197.391 203.469 197.371 203.516 197.361 203.565C197.351 203.615 197.35 203.666 197.36 203.715C197.37 203.765 197.39 203.812 197.418 203.854C197.484 203.932 197.577 203.982 197.678 203.995Z" fill="#263238"/>
<path d="M212.974 207.528C213.048 207.54 213.124 207.53 213.192 207.499C213.26 207.468 213.318 207.417 213.357 207.353C213.397 207.29 213.416 207.216 213.414 207.141C213.411 207.066 213.386 206.993 213.342 206.932C212.942 206.336 212.404 205.845 211.774 205.499C211.144 205.154 210.44 204.965 209.722 204.949C209.62 204.954 209.525 204.999 209.456 205.074C209.387 205.149 209.35 205.248 209.353 205.35C209.355 205.4 209.366 205.45 209.387 205.497C209.408 205.543 209.438 205.584 209.476 205.619C209.513 205.653 209.557 205.68 209.605 205.697C209.653 205.714 209.704 205.721 209.754 205.718C210.345 205.74 210.923 205.902 211.439 206.19C211.955 206.478 212.396 206.885 212.724 207.377C212.752 207.419 212.789 207.455 212.832 207.481C212.875 207.507 212.923 207.524 212.974 207.528Z" fill="#263238"/>
<path d="M200.334 206.78L202.285 206.715C202.285 206.715 200.985 207.897 200.334 206.78Z" fill="#263238"/>
<path d="M225.559 247.225C225.559 247.225 222.166 243.973 215.066 244.818C207.966 245.664 205.31 243.669 205.31 243.669L201.223 245.653L194.188 284.015L218.285 286.541L225.559 247.225Z" fill="#F5F5F5"/>
<path d="M225.559 247.225C225.559 247.225 228.084 242.531 234.708 243.279C241.331 244.027 243.217 241.002 243.217 241.002L246.578 242.986L239.564 281.316L218.372 286.509L225.559 247.225Z" fill="#F5F5F5"/>
<path d="M216.063 287.972L193.809 285.446C193.649 285.449 193.491 285.416 193.346 285.35C193.201 285.285 193.072 285.188 192.969 285.067C192.865 284.946 192.79 284.803 192.747 284.65C192.705 284.496 192.697 284.335 192.725 284.178L199.651 246.455C199.724 246.107 199.91 245.793 200.181 245.563C200.452 245.334 200.792 245.201 201.147 245.187L223.413 247.712C223.469 247.711 223.526 247.723 223.578 247.746C223.629 247.77 223.675 247.805 223.712 247.849C223.748 247.892 223.774 247.944 223.788 247.999C223.802 248.054 223.803 248.112 223.792 248.168L216.562 287.517C216.539 287.636 216.478 287.745 216.388 287.827C216.298 287.909 216.184 287.96 216.063 287.972Z" fill="#407BFF"/>
<path opacity="0.1" d="M216.063 287.972L193.809 285.446C193.649 285.449 193.491 285.416 193.346 285.35C193.201 285.285 193.072 285.188 192.969 285.067C192.865 284.946 192.79 284.803 192.747 284.65C192.705 284.496 192.697 284.335 192.725 284.178L199.651 246.455C199.724 246.107 199.91 245.793 200.181 245.563C200.452 245.334 200.792 245.201 201.147 245.187L223.413 247.712C223.469 247.711 223.526 247.723 223.578 247.746C223.629 247.77 223.675 247.805 223.712 247.849C223.748 247.892 223.774 247.944 223.788 247.999C223.802 248.054 223.803 248.112 223.792 248.168L216.562 287.517C216.539 287.636 216.478 287.745 216.388 287.827C216.298 287.909 216.184 287.96 216.063 287.972Z" fill="white"/>
<path d="M220.052 287.972L239.412 282.78C239.767 282.764 240.106 282.63 240.377 282.401C240.647 282.171 240.834 281.859 240.908 281.511L247.835 243.788C247.864 243.63 247.858 243.468 247.816 243.313C247.775 243.158 247.7 243.015 247.596 242.892C247.492 242.77 247.363 242.672 247.217 242.606C247.07 242.54 246.912 242.506 246.751 242.509L227.391 247.712C227.262 247.715 227.138 247.761 227.04 247.844C226.941 247.927 226.874 248.041 226.849 248.168L219.619 287.517C219.602 287.578 219.602 287.642 219.618 287.703C219.633 287.764 219.664 287.82 219.708 287.866C219.751 287.912 219.806 287.945 219.866 287.964C219.926 287.983 219.991 287.985 220.052 287.972Z" fill="#407BFF"/>
<path opacity="0.1" d="M220.052 287.972L239.412 282.78C239.767 282.764 240.106 282.63 240.377 282.401C240.647 282.171 240.834 281.859 240.908 281.511L247.835 243.788C247.864 243.63 247.858 243.468 247.816 243.313C247.775 243.158 247.7 243.015 247.596 242.892C247.492 242.77 247.363 242.672 247.217 242.606C247.07 242.54 246.912 242.506 246.751 242.509L227.391 247.712C227.262 247.715 227.138 247.761 227.04 247.844C226.941 247.927 226.874 248.041 226.849 248.168L219.619 287.517C219.602 287.578 219.602 287.642 219.618 287.703C219.633 287.764 219.664 287.82 219.708 287.866C219.751 287.912 219.806 287.945 219.866 287.964C219.926 287.983 219.991 287.985 220.052 287.972Z" fill="white"/>
<path d="M219.185 287.972H216.952C216.899 287.976 216.845 287.966 216.796 287.945C216.747 287.924 216.704 287.891 216.67 287.85C216.636 287.809 216.612 287.76 216.601 287.707C216.59 287.655 216.591 287.601 216.605 287.549L223.835 248.135C223.86 248.017 223.924 247.911 224.016 247.835C224.109 247.758 224.225 247.715 224.345 247.712H226.556C226.61 247.709 226.663 247.718 226.712 247.739C226.761 247.76 226.804 247.793 226.838 247.834C226.872 247.876 226.896 247.925 226.907 247.977C226.918 248.029 226.917 248.083 226.903 248.135L219.673 287.549C219.649 287.664 219.589 287.767 219.5 287.843C219.412 287.92 219.301 287.965 219.185 287.972Z" fill="#407BFF"/>
<path opacity="0.3" d="M219.185 287.972H216.952C216.899 287.976 216.845 287.966 216.796 287.945C216.747 287.924 216.704 287.891 216.67 287.85C216.636 287.809 216.612 287.76 216.601 287.707C216.59 287.655 216.591 287.601 216.605 287.549L223.835 248.135C223.86 248.017 223.924 247.911 224.016 247.835C224.109 247.758 224.225 247.715 224.345 247.712H226.556C226.61 247.709 226.663 247.718 226.712 247.739C226.761 247.76 226.804 247.793 226.838 247.834C226.872 247.876 226.896 247.925 226.907 247.977C226.918 248.029 226.917 248.083 226.903 248.135L219.673 287.549C219.649 287.664 219.589 287.767 219.5 287.843C219.412 287.92 219.301 287.965 219.185 287.972Z" fill="white"/>
<path d="M190.708 276.265L199.228 274.758L196.367 267.17C196.367 267.17 190.795 270.682 188.93 273.804L190.708 276.265Z" fill="#FFC3BD"/>
<path d="M203.846 272.948L203.337 265.078L196.367 267.192L199.228 274.758L203.846 272.948Z" fill="#FFC3BD"/>
<path d="M249.364 258.303L248.887 248.417L242.274 247.994L244.973 258.52L249.364 258.303Z" fill="#FFC3BD"/>
</svg>
