<svg width="42" height="66" viewBox="0 0 42 66" fill="none" xmlns="http://www.w3.org/2000/svg">
<path d="M34.6728 5.32766L31.8809 5.32779C30.8744 5.32784 30.0586 6.26014 30.0587 7.41015L30.0593 19.006C30.0593 20.156 30.8751 21.0882 31.8817 21.0881L34.6736 21.088C35.6802 21.088 36.4959 20.1557 36.4958 19.0057L36.4953 7.40984C36.4952 6.25983 35.6794 5.32761 34.6728 5.32766Z" fill="#41529F"/>
<path d="M24.2364 64.4829L24.2358 53.4976L36.0705 53.497L25.8062 65.2268C25.6776 65.3739 25.5136 65.474 25.3352 65.5144C25.1567 65.5548 24.9718 65.5342 24.8037 65.4545C24.6356 65.3749 24.492 65.2399 24.391 65.0669C24.29 64.8942 24.2362 64.6909 24.2364 64.4829Z" fill="#41529F"/>
<path d="M36.7046 52.8143L24.2358 52.8149L24.2359 54.1317L35.4924 54.1311L36.7046 52.8143Z" fill="#324293"/>
<path d="M39.2662 20.2888L22.2339 0.827111C21.7733 0.303437 21.1499 0.00947324 20.5001 0.00950473C19.8504 0.00953621 19.227 0.30356 18.7664 0.827279L1.73631 20.2906C0.697088 21.6114 0.084793 23.2988 0.00121436 25.0724L0.00138047 28.5006C9.30645 36.4102 20.5994 40.6718 32.1968 40.65C35.1462 40.6504 38.0908 40.3764 41.0014 39.8305L41.0007 25.0704C40.916 23.2973 40.3042 21.6104 39.2662 20.2888Z" fill="#41529F"/>
<path d="M32.1974 43.802C20.6 43.8235 9.30708 39.562 0.00195312 31.6526L0.00285043 50.1711C0.00499104 50.9135 0.264026 51.6246 0.72341 52.1493C1.18279 52.6743 1.80522 52.9701 2.45485 52.9725L38.5509 52.9708C39.2003 52.9683 39.8227 52.6722 40.2822 52.1474C40.7414 51.6223 41.0002 50.9112 41.0023 50.1691L41.002 42.9825C38.0914 43.5284 35.1468 43.8025 32.1974 43.802Z" fill="#41529F"/>
</svg>
