<svg width="36" height="37" viewBox="0 0 36 37" fill="none" xmlns="http://www.w3.org/2000/svg">
<path d="M12.024 10.6494C11.625 10.6494 11.2423 10.8079 10.9602 11.0901C10.678 11.3722 10.5195 11.7549 10.5195 12.1539C10.5195 12.5529 10.678 12.9356 10.9602 13.2178C11.2423 13.4999 11.625 13.6584 12.024 13.6584H23.949C24.348 13.6584 24.7307 13.4999 25.0129 13.2178C25.295 12.9356 25.4535 12.5529 25.4535 12.1539C25.4535 11.7549 25.295 11.3722 25.0129 11.0901C24.7307 10.8079 24.348 10.6494 23.949 10.6494H12.024Z" fill="#3D56B2"/>
<path d="M10.5239 18.1764C10.5239 17.3484 11.1944 16.6719 12.0239 16.6719H23.9489C24.3479 16.6719 24.7306 16.8304 25.0128 17.1125C25.2949 17.3947 25.4534 17.7774 25.4534 18.1764C25.4534 18.5754 25.2949 18.9581 25.0128 19.2402C24.7306 19.5224 24.3479 19.6809 23.9489 19.6809H12.0239C11.1944 19.6809 10.5239 19.0059 10.5239 18.1764Z" fill="#3D56B2"/>
<path d="M12.0375 22.6943C11.6383 22.6943 11.2554 22.8529 10.9731 23.1352C10.6908 23.4175 10.5322 23.8004 10.5322 24.1996C10.5322 24.5988 10.6908 24.9817 10.9731 25.264C11.2554 25.5462 11.6383 25.7048 12.0375 25.7048H23.9625C24.3617 25.7048 24.7446 25.5462 25.0269 25.264C25.3091 24.9817 25.4677 24.5988 25.4677 24.1996C25.4677 23.8004 25.3091 23.4175 25.0269 23.1352C24.7446 22.8529 24.3617 22.6943 23.9625 22.6943H12.0375Z" fill="#3D56B2"/>
<path fill-rule="evenodd" clip-rule="evenodd" d="M4.5 9.17627C4.5 7.9828 4.97411 6.8382 5.81802 5.99429C6.66193 5.15038 7.80653 4.67627 9 4.67627H27C28.1935 4.67627 29.3381 5.15038 30.182 5.99429C31.0259 6.8382 31.5 7.9828 31.5 9.17627V27.1763C31.5 28.3697 31.0259 29.5143 30.182 30.3582C29.3381 31.2022 28.1935 31.6763 27 31.6763H9C7.80653 31.6763 6.66193 31.2022 5.81802 30.3582C4.97411 29.5143 4.5 28.3697 4.5 27.1763V9.17627ZM9 7.67627H27C27.3978 7.67627 27.7794 7.83431 28.0607 8.11561C28.342 8.39691 28.5 8.77844 28.5 9.17627V27.1763C28.5 27.5741 28.342 27.9556 28.0607 28.2369C27.7794 28.5182 27.3978 28.6763 27 28.6763H9C8.60218 28.6763 8.22064 28.5182 7.93934 28.2369C7.65804 27.9556 7.5 27.5741 7.5 27.1763V9.17627C7.5 8.77844 7.65804 8.39691 7.93934 8.11561C8.22064 7.83431 8.60218 7.67627 9 7.67627Z" fill="#3D56B2"/>
</svg>
