<svg width="38" height="29" viewBox="0 0 38 29" fill="none" xmlns="http://www.w3.org/2000/svg">
<path d="M35.625 28.0725C35.625 28.0725 38 28.0725 38 25.7392C38 23.4058 35.625 16.4058 26.125 16.4058C16.625 16.4058 14.25 23.4058 14.25 25.7392C14.25 28.0725 16.625 28.0725 16.625 28.0725H35.625ZM16.6772 25.7392C16.6597 25.7368 16.6423 25.7337 16.625 25.7298C16.6274 25.1138 17.0216 23.3265 18.43 21.7165C19.741 20.2068 22.0448 18.7392 26.125 18.7392C30.2029 18.7392 32.5066 20.2092 33.82 21.7165C35.2284 23.3265 35.6203 25.1162 35.625 25.7298L35.606 25.7345C35.595 25.7363 35.5839 25.7379 35.5728 25.7392H16.6772ZM26.125 11.7392C27.3848 11.7392 28.593 11.2475 29.4838 10.3723C30.3746 9.49717 30.875 8.31019 30.875 7.07251C30.875 5.83483 30.3746 4.64785 29.4838 3.77268C28.593 2.89751 27.3848 2.40584 26.125 2.40584C24.8652 2.40584 23.657 2.89751 22.7662 3.77268C21.8754 4.64785 21.375 5.83483 21.375 7.07251C21.375 8.31019 21.8754 9.49717 22.7662 10.3723C23.657 11.2475 24.8652 11.7392 26.125 11.7392ZM33.25 7.07251C33.25 7.99176 33.0657 8.90201 32.7076 9.75129C32.3496 10.6006 31.8248 11.3722 31.1631 12.0223C30.5015 12.6723 29.7161 13.1879 28.8516 13.5397C27.9872 13.8914 27.0607 14.0725 26.125 14.0725C25.1893 14.0725 24.2628 13.8914 23.3984 13.5397C22.5339 13.1879 21.7485 12.6723 21.0869 12.0223C20.4252 11.3722 19.9004 10.6006 19.5424 9.75129C19.1843 8.90201 19 7.99176 19 7.07251C19 5.21599 19.7507 3.43552 21.0869 2.12276C22.4231 0.810008 24.2353 0.0725098 26.125 0.0725098C28.0147 0.0725098 29.8269 0.810008 31.1631 2.12276C32.4993 3.43552 33.25 5.21599 33.25 7.07251ZM16.473 17.0592C15.523 16.7653 14.5436 16.5721 13.5517 16.4828C12.9944 16.4308 12.4348 16.4051 11.875 16.4058C2.375 16.4058 0 23.4058 0 25.7392C0 27.2955 0.790875 28.0725 2.375 28.0725H12.388C12.0359 27.3441 11.8603 26.5454 11.875 25.7392C11.875 23.3825 12.7704 20.9745 14.4638 18.9632C15.0409 18.2772 15.713 17.6355 16.473 17.0592ZM11.685 18.7392C10.2794 20.8141 9.52005 23.2467 9.5 25.7392H2.375C2.375 25.1325 2.7645 23.3358 4.18 21.7165C5.47438 20.2325 7.7235 18.7858 11.685 18.7415V18.7392ZM3.5625 8.23918C3.5625 6.38266 4.31317 4.60218 5.64936 3.28943C6.98556 1.97667 8.79783 1.23918 10.6875 1.23918C12.5772 1.23918 14.3894 1.97667 15.7256 3.28943C17.0618 4.60218 17.8125 6.38266 17.8125 8.23918C17.8125 10.0957 17.0618 11.8762 15.7256 13.1889C14.3894 14.5017 12.5772 15.2392 10.6875 15.2392C8.79783 15.2392 6.98556 14.5017 5.64936 13.1889C4.31317 11.8762 3.5625 10.0957 3.5625 8.23918ZM10.6875 3.57251C9.42772 3.57251 8.21954 4.06417 7.32874 4.93934C6.43794 5.81451 5.9375 7.0015 5.9375 8.23918C5.9375 9.47685 6.43794 10.6638 7.32874 11.539C8.21954 12.4142 9.42772 12.9058 10.6875 12.9058C11.9473 12.9058 13.1555 12.4142 14.0463 11.539C14.9371 10.6638 15.4375 9.47685 15.4375 8.23918C15.4375 7.0015 14.9371 5.81451 14.0463 4.93934C13.1555 4.06417 11.9473 3.57251 10.6875 3.57251Z" fill="#828282"/>
</svg>
