<svg width="38" height="39" viewBox="0 0 38 39" fill="none" xmlns="http://www.w3.org/2000/svg">
<path d="M24.668 17.885H13.3314L14.7405 16.2985C14.9351 16.0614 15.0303 15.7581 15.0062 15.4523C14.9822 15.1466 14.8407 14.8619 14.6115 14.6581C14.3823 14.4543 14.0831 14.347 13.7766 14.3589C13.4701 14.3707 13.18 14.5007 12.9672 14.7216L9.80054 18.284C9.60756 18.5014 9.50098 18.7819 9.50098 19.0725C9.50098 19.3632 9.60756 19.6437 9.80054 19.861L12.9672 23.4235C13.0686 23.5472 13.194 23.6491 13.3358 23.7231C13.4775 23.7971 13.6328 23.8418 13.7923 23.8543C13.9517 23.8668 14.112 23.847 14.2636 23.7961C14.4152 23.7452 14.555 23.6641 14.6745 23.5578C14.794 23.4516 14.8908 23.3222 14.9591 23.1776C15.0274 23.033 15.0658 22.8761 15.072 22.7163C15.0782 22.5564 15.052 22.397 14.995 22.2476C14.9381 22.0981 14.8515 21.9617 14.7405 21.8465L13.3314 20.26H24.668L23.2589 21.8465C23.1479 21.9617 23.0613 22.0981 23.0044 22.2476C22.9474 22.397 22.9213 22.5564 22.9274 22.7163C22.9336 22.8761 22.972 23.033 23.0403 23.1776C23.1086 23.3222 23.2054 23.4516 23.3249 23.5578C23.4444 23.6641 23.5842 23.7452 23.7358 23.7961C23.8874 23.847 24.0477 23.8668 24.2072 23.8543C24.3666 23.8418 24.5219 23.7971 24.6636 23.7231C24.8054 23.6491 24.9308 23.5472 25.0322 23.4235L28.1989 19.861L28.2163 19.842C28.4035 19.6236 28.5047 19.3444 28.5009 19.0568C28.4971 18.7691 28.3886 18.4927 28.1957 18.2793L25.0338 14.7216C24.8223 14.495 24.5307 14.36 24.2211 14.3455C23.9115 14.3311 23.6085 14.4382 23.3769 14.644C23.1452 14.8499 23.0032 15.1381 22.9811 15.4473C22.9591 15.7564 23.0587 16.0619 23.2589 16.2985L24.668 17.885Z" fill="#828282"/>
<path d="M28.1042 4.82251C29.4689 4.82251 30.7778 5.36466 31.7428 6.32969C32.7079 7.29472 33.25 8.60358 33.25 9.96834V28.1767C33.25 29.5414 32.7079 30.8503 31.7428 31.8153C30.7778 32.7804 29.4689 33.3225 28.1042 33.3225H9.89583C8.53107 33.3225 7.22221 32.7804 6.25718 31.8153C5.29215 30.8503 4.75 29.5414 4.75 28.1767V9.96834C4.75 8.60358 5.29215 7.29472 6.25718 6.32969C7.22221 5.36466 8.53107 4.82251 9.89583 4.82251H28.1042ZM30.875 9.96834C30.875 9.23347 30.5831 8.5287 30.0634 8.00907C29.5438 7.48944 28.839 7.19751 28.1042 7.19751H27.7083V15.3469L26.2168 13.6686C25.97 13.3902 25.6695 13.1645 25.3333 13.0052V7.19751H12.6667V13.0052C12.3303 13.165 12.0298 13.3912 11.7832 13.6702L10.2917 15.3469V7.19751H9.89583C9.16096 7.19751 8.45619 7.48944 7.93656 8.00907C7.41693 8.5287 7.125 9.23347 7.125 9.96834V28.1767C7.125 29.7062 8.36633 30.9475 9.89583 30.9475H10.2917V22.7981L11.7832 24.4764C12.0381 24.763 12.3405 24.9831 12.6667 25.1398V30.9475H25.3333V25.1398C25.6595 24.9847 25.9619 24.763 26.2168 24.4748L27.7083 22.7965V30.9475H28.1042C28.839 30.9475 29.5438 30.6556 30.0634 30.136C30.5831 29.6163 30.875 28.9115 30.875 28.1767V9.96834Z" fill="#828282"/>
</svg>
